<?xml version="1.0" encoding="UTF-8"?>
<svg id="Layer_1" data-name="Layer 1" xmlns="http://www.w3.org/2000/svg" viewBox="0 0 512 512">
  <defs>
    <style>
      .cls-1 {
        fill: #00798d;
      }

      .cls-2 {
        fill: #edae49;
      }

      .cls-3 {
        fill: #f2f7f9;
      }
    </style>
  </defs>
  <rect class="cls-3" x="0" width="512" height="512" rx="50" ry="50"/>
  <g>
    <path class="cls-1" d="M193.18,483.94l-5.54-332.11c-.17-10.32,8.14-18.77,18.46-18.77h99.16c10.32,0,18.64,8.46,18.46,18.78l-5.65,332.11c-.17,10.07-8.39,18.15-18.46,18.15h-87.97c-10.08,0-18.3-8.08-18.46-18.16Z"/>
    <path class="cls-1" d="M74.47,256.07h363.06c11.28,0,19.92,10.02,18.27,21.18l-12.79,86.08c-1.34,9.05-9.12,15.75-18.27,15.75H87.51c-9.13,0-16.89-6.67-18.26-15.7l-13.04-86.08c-1.69-11.17,6.96-21.23,18.26-21.23Z"/>
    <path class="cls-2" d="M285.72,164.35c0,66-11.95,123.64-29.72,154.45-17.77-30.83-29.72-88.45-29.72-154.45s11.95-123.61,29.72-154.45c17.77,30.81,29.72,88.45,29.72,154.45Z"/>
    <path class="cls-2" d="M353.67,252.65c-35,35-71.91,59.23-97.67,66.15,6.93-25.77,31.14-62.67,66.15-97.67,35-35,71.9-59.22,97.67-66.15-6.92,25.76-31.14,62.67-66.15,97.67Z"/>
    <path class="cls-2" d="M342.88,335.52c-37.13,0-69.55-6.72-86.88-16.72,17.34-9.99,49.75-16.72,86.88-16.72,37.13,0,69.53,6.72,86.88,16.72-17.33,9.99-49.75,16.72-86.88,16.72Z"/>
    <path class="cls-2" d="M293.21,373.74c-19.69-19.69-33.32-40.45-37.21-54.94,14.5,3.9,35.25,17.52,54.94,37.21,19.69,19.69,33.31,40.44,37.21,54.94-14.49-3.89-35.25-17.52-54.94-37.21Z"/>
    <path class="cls-2" d="M218.79,373.74c19.69-19.69,33.32-40.45,37.21-54.94-14.5,3.9-35.25,17.52-54.94,37.21s-33.31,40.44-37.21,54.94c14.49-3.89,35.25-17.52,54.94-37.21Z"/>
    <path class="cls-2" d="M246.6,367.67c0-20.88,3.78-39.12,9.4-48.87,5.62,9.76,9.4,27.98,9.4,48.87,0,20.88-3.78,39.11-9.4,48.87-5.62-9.75-9.4-27.98-9.4-48.87Z"/>
    <path class="cls-2" d="M158.33,252.65c35,35,71.91,59.23,97.67,66.15-6.93-25.77-31.14-62.67-66.15-97.67-35-35-71.9-59.22-97.67-66.15,6.92,25.76,31.14,62.67,66.15,97.67Z"/>
    <path class="cls-2" d="M169.12,335.52c37.13,0,69.55-6.72,86.88-16.72-17.34-9.99-49.75-16.72-86.88-16.72-37.13,0-69.53,6.72-86.88,16.72,17.33,9.99,49.75,16.72,86.88,16.72Z"/>
  </g>
</svg>